<svg xmlns="http://www.w3.org/2000/svg" viewBox="0 0 303 306.55"><defs><style>.cls-1{fill:#23a18c;}.cls-2{fill:#42210b;}.cls-3{fill:#1a1a1a;}.cls-4{fill:#230f04;}.cls-5{fill:#263238;}.cls-6{fill:#f9d5c0;}.cls-7{fill:#fff;}.cls-8{fill:#bf1a2f;}.cls-9{fill:#f0f0f0;}</style></defs><g id="Camada_2" data-name="Camada 2"><g id="Camada_1-2" data-name="Camada 1"><path class="cls-1" d="M286.19,174.55a132,132,0,0,0-132-132c-78.93,0-130.34,70.79-132,132A118.9,118.9,0,0,0,30.9,222H277.37A131.69,131.69,0,0,0,286.19,174.55Z"/><path class="cls-2" d="M30.9,222a140.56,140.56,0,0,0,26.2,42c4.13,4.48,41.54,42.57,97.09,42.57A132,132,0,0,0,277.37,222Z"/><path class="cls-3" d="M144.94,229.6s2.91,5.82,1.74,5.82H14.55l9.9-3.5Z"/><path class="cls-4" d="M4.07,233.67S0,232.51,0,234.83c0,.83,1.75,1.75,2.91,1.75L301.52,236s2.91-1.17.58-2.33l-143.79-.75s-3.48-6.82-4.06-6.82-2.74-2.33-4.28,0l-5,7Z"/><g id="freepik--Character--inject-13"><path class="cls-5" d="M162.77,84s9-8,19.17-1.81,12.63,15.6,13.22,22.73,9.22,8,9.66,15.16-9.22,9-6.84,15.91,7,8,5.05,14-7.43,3.12-5.2,8.62,7.28,7.43,6.39,12.93-4.75,5.94-4.31,9.36,3.57,2.68,3.42,1.48l-.15-1.2s4,1.63,1,7S195.77,193.2,194,188s-1.2-19.62-7.13-23.63-18.28-5.5-22-11,1.81-16.5,1.81-16.5,5.5-21.55,3.27-28.09-6.84-14.86-7.43-18.43A14.91,14.91,0,0,1,162.77,84Z"/><path class="cls-5" d="M198.79,192.37h-.42c-2.09-.19-3.84-1.76-4.68-4.22a42.25,42.25,0,0,1-1.26-7c-.79-6.14-1.78-13.79-5.75-16.47-2.37-1.6-5.73-2.78-9.28-4-5.18-1.81-10.53-3.7-12.8-7.06-3.71-5.49,1.37-16,1.75-16.77.23-.93,5.43-21.62,3.27-27.89-1-3-2.5-6.26-3.93-9.43-1.71-3.79-3.19-7.07-3.52-9a15.32,15.32,0,0,1,.31-6.53v-.08l.07-.06c.09-.08,9.35-8.1,19.52-1.81,8,5,12.52,12.67,13.37,23,.29,3.43,2.46,5.33,4.76,7.35s4.67,4.11,4.91,7.84c.21,3.51-1.88,5.76-3.9,7.93s-4.15,4.47-3,7.89a23.23,23.23,0,0,0,3.19,5.9c1.74,2.49,3.1,4.46,1.86,8.26a7.13,7.13,0,0,1-4,4.49c-1.5.78-2.32,1.21-1.21,3.93a19.83,19.83,0,0,0,3.36,5.19c1.86,2.28,3.62,4.43,3.05,7.9a10.94,10.94,0,0,1-2.81,5.71c-1,1.21-1.7,2-1.5,3.57.23,1.81,1.23,2.3,2,2.21.48-.07.84-.35.8-.65l-.22-1.7.48.19a4,4,0,0,1,2.09,2.28c.51,1.43.2,3.15-.89,5.14C203.07,190.89,201,192.37,198.79,192.37ZM163,84.17a15.15,15.15,0,0,0-.26,6.18c.31,1.89,1.84,5.29,3.47,8.89,1.43,3.18,2.92,6.48,3.95,9.49,2.23,6.54-3,27.37-3.26,28.25v.07c-.06.1-5.38,10.9-1.81,16.19,2.16,3.19,7.42,5,12.5,6.83,3.59,1.26,7,2.45,9.41,4.09,4.23,2.84,5.21,10.63,6,16.89a43.16,43.16,0,0,0,1.2,6.89c.78,2.26,2.29,3.65,4.16,3.82,2.08.18,4.16-1.21,5.55-3.72,1-1.81,1.3-3.37.86-4.63a3.41,3.41,0,0,0-1.26-1.64l.07.6c.08.64-.49,1.21-1.32,1.32-1.14.15-2.41-.64-2.69-2.73-.24-1.81.6-2.83,1.63-4A10.28,10.28,0,0,0,204,171.5c.52-3.2-1.08-5.16-2.93-7.42a21.06,21.06,0,0,1-3.45-5.34c-1.3-3.22-.06-3.87,1.5-4.69a6.53,6.53,0,0,0,3.7-4.14c1.14-3.51-.08-5.29-1.81-7.73a23.49,23.49,0,0,1-3.27-6c-1.31-3.77.92-6.18,3.08-8.5,1.94-2.09,3.94-4.23,3.74-7.49-.22-3.46-2.41-5.37-4.71-7.4s-4.65-4.08-5-7.75c-.86-10.25-5.13-17.6-13.09-22.51C172.43,76.7,163.85,83.49,163,84.17Z"/><path class="cls-6" d="M170.35,137.36s-3.86,11-4.31,14.56-.45,12.63.29,20.51-.6,55.14-.6,55.14H126.8s2.08-19.47,5.2-44.88,11-42.23,14.87-47.56,5.49-8.18,5.49-8.18Z"/><path class="cls-5" d="M165.74,227.87H126.8a.27.27,0,0,1-.22-.1.29.29,0,0,1-.08-.23c0-.2,2.12-19.77,5.21-44.89,3.16-25.78,11.13-42.47,14.91-47.7s5.46-8.12,5.48-8.15a.31.31,0,0,1,.41-.11l18,10.41a.3.3,0,0,1,.13.36c0,.11-3.86,11-4.3,14.48s-.43,12.67.31,20.44-.61,54.7-.61,55.17a.29.29,0,0,1-.27.32Zm-38.61-.6h38.31c.1-4,1.29-47.36.6-54.81-.74-7.84-.75-17-.3-20.57.42-3.32,3.66-12.73,4.23-14.39l-17.5-10.14c-.49.82-2.18,3.54-5.36,8-3.74,5.18-11.66,21.76-14.81,47.42-2.86,23.32-4.87,41.85-5.16,44.54Z"/><path class="cls-5" d="M154.39,132.42s4.05,9.21,12.13,13.62c1.28-4.33,3-9.23,3-9.23l-14.92-8.63Z"/><path class="cls-5" d="M166.71,146.48l-.33-.17c-8.08-4.41-12.23-13.67-12.26-13.77l0-.06.25-4.83,15.55,9-.08.24c0,.05-1.74,5-3,9.21Zm-12-14.12c.37.81,4.3,9,11.64,13.23,1.09-3.65,2.47-7.65,2.82-8.64l-14.27-8.26Z"/><path class="cls-7" d="M154.89,156.24c-7.66-2.11-11.62-9.86-12.74-12.41-3.75,8.45-8,21.67-10.15,38.86-3.12,25.41-5.2,44.88-5.2,44.88h38.94s1.34-47.26.6-55.14a143.23,143.23,0,0,1-.55-16.7A18.52,18.52,0,0,1,154.89,156.24Z"/><path class="cls-5" d="M165.74,227.87H126.8a.27.27,0,0,1-.22-.1.29.29,0,0,1-.08-.23c0-.2,2.12-19.77,5.21-44.89,2.37-19.3,7.39-32.69,10.16-38.94a.31.31,0,0,1,.28-.18h0a.31.31,0,0,1,.28.18c1,2.34,5,10.15,12.54,12.23a17.92,17.92,0,0,0,10.72-.5.32.32,0,0,1,.28.05.33.33,0,0,1,.12.25,140.39,140.39,0,0,0,.55,16.66c.73,7.81-.61,54.71-.61,55.18a.29.29,0,0,1-.29.29Zm-38.61-.6h38.31c.1-4,1.29-47.36.6-54.81a145.13,145.13,0,0,1-.56-16.29,18.53,18.53,0,0,1-10.66.38h0c-7.24-2-11.27-9.05-12.67-12-2.81,6.46-7.57,19.52-9.85,38.16-2.86,23.3-4.87,41.83-5.16,44.52Z"/><path class="cls-6" d="M128.18,83.49s.52-9.25-1.37-16.62-8.57-31-8.57-32.54,5-5,5.82-6.17.85-3.62,1.54-5.48,2.05-4.79,4.28-6.34,1.37-3.08-1.54-2.05-5.65,5-5.82,5.65-1.38.34-2.06-1-5.14-15.41-6-16.1-1.44,0-1.32.78,1.9,9.5,1.9,9.66-.18.18-.55.18S111,1.43,110.33.77s-1.66-.55-1.78-.06,2.42,12.12,2.51,12.8-.55,1-.79.85-3.93-12.74-4.41-13-1.6-.6-1.81.86,3.55,12.74,3.37,13.27-.8.6-.92.31-4.83-8.82-5.21-8.88-1.29-.13-.86,1.28,3.92,11.21,3.92,11.21,2.45,10.71,3.56,12.43,1.71,2.63,1.71,2.63-.46,34.1.44,40.25a55.2,55.2,0,0,0,2.82,11S121.85,81.89,128.18,83.49Z"/><path class="cls-5" d="M112.87,86a.24.24,0,0,1-.12,0,.3.3,0,0,1-.16-.17,55,55,0,0,1-2.84-11.08c-.88-6-.47-37.84-.44-40.2-.17-.25-.75-1.14-1.67-2.56C106.53,30.28,104.15,20,104,19.49s-3.46-9.81-3.88-11.21a1.4,1.4,0,0,1,.1-1.4,1.09,1.09,0,0,1,1.1-.27c.63.1,5.43,9,5.43,9h.11a.43.43,0,0,0,.24-.27c0-.27-.67-2.58-1.27-4.61-1.33-4.51-2.26-7.77-2.11-8.63a1.52,1.52,0,0,1,.8-1.26,1.65,1.65,0,0,1,1.49.19c.31.2.87,1.81,3,8.49.63,2,1.28,4.09,1.48,4.56l.17-.11a.48.48,0,0,0,.12-.44c0-.15-.17-.85-.38-1.86C108.52,2.79,108.2.93,108.28.64a.83.83,0,0,1,.6-.6,1.76,1.76,0,0,1,1.65.51c.38.38,1.2,3,2.44,7.31.66,2.22,1.4,4.72,1.66,5.28h.08c-.1-.53-.51-2.59-.88-4.43-.42-2.31-.9-4.66-1-5.07a1.18,1.18,0,0,1,.5-1.29,1.1,1.1,0,0,1,1.3.23c.55.41,1.76,3.82,4.17,10.82.9,2.62,1.68,4.89,1.92,5.38A2,2,0,0,0,122.13,20a.12.12,0,0,0,.12-.12c.2-.79,3-4.83,6-5.86,1.55-.55,2.73-.44,3.1.27s-.16,1.54-1.29,2.32c-2.23,1.55-3.57,4.54-4.17,6.19a15.07,15.07,0,0,0-.6,2.47,8.1,8.1,0,0,1-1,3.08,16.48,16.48,0,0,1-2.1,2c-1.46,1.25-3.66,3.14-3.66,4S121.5,46,123.85,54.58c1.35,4.94,2.62,9.65,3.29,12.23,1.87,7.32,1.38,16.6,1.38,16.7a.33.33,0,0,1-.38.28C122,82.23,113.11,86,113,86A.26.26,0,0,1,112.87,86ZM101,7.18a.45.45,0,0,0-.32.09c0,.07-.15.26,0,.83.42,1.39,3.87,11.1,3.91,11.2s2.46,10.72,3.52,12.37,1.72,2.63,1.72,2.63a.48.48,0,0,1,0,.17c0,.34-.45,34.13.43,40.19A55.27,55.27,0,0,0,113,85.33c1.58-.64,9.1-3.48,14.86-2.22.06-1.77.26-9.74-1.38-16.17-.66-2.6-1.94-7.26-3.29-12.21-3.09-11.34-5.28-19.44-5.28-20.4s1.6-2.51,3.87-4.47a16.1,16.1,0,0,0,2-1.87,7.63,7.63,0,0,0,.88-2.85,17.33,17.33,0,0,1,.61-2.56c.6-1.72,2-4.83,4.39-6.49.95-.65,1.21-1.26,1.09-1.54s-.89-.5-2.36,0c-2.75,1-5.48,4.83-5.63,5.43a.71.71,0,0,1-.65.56c-.55.06-1.4-.39-2-1.53-.26-.52-1-2.7-2-5.43-1.3-3.77-3.46-10.08-4-10.55-.25-.2-.47-.26-.6-.17a.67.67,0,0,0-.21.68c.06.39.53,2.76,1,5.05.77,3.82.91,4.57.91,4.67,0,.49-.49.49-.85.49s-.4,0-2.08-5.72A60.69,60.69,0,0,0,110.13,1a1.17,1.17,0,0,0-1.06-.35.27.27,0,0,0-.21.15c0,.56,1.53,8,2.14,10.82l.39,1.87a1.08,1.08,0,0,1-.48,1.13.71.71,0,0,1-.79,0c-.16-.11-.23-.28-1.68-4.88-1-3.1-2.45-7.79-2.76-8.19a1.09,1.09,0,0,0-.88-.12q-.35.15-.45.81c-.13.79,1.15,5.17,2.09,8.36,1.17,4,1.35,4.7,1.26,5a1,1,0,0,1-.87.69.6.6,0,0,1-.6-.37c-.2-.46-4.4-8-5-8.71Z"/><path class="cls-5" d="M114.07,31.13a.29.29,0,0,1-.27-.17,3.3,3.3,0,0,1-.34-1.63c.14-2.27,2.42-4.35,2.54-4.43a.3.3,0,1,1,.4.45h0s-2.22,2-2.33,4a2.65,2.65,0,0,0,.27,1.33.29.29,0,0,1-.14.4h0A.28.28,0,0,1,114.07,31.13Z"/><path class="cls-5" d="M116.07,33.23a.37.37,0,0,1-.15,0,6.3,6.3,0,0,1-1.27-1,.3.3,0,0,1,0-.43h0a.29.29,0,0,1,.42,0h0a6,6,0,0,0,1.14.92.31.31,0,0,1,.1.42.32.32,0,0,1-.25.15Z"/><path class="cls-5" d="M107.48,16.82a.3.3,0,0,1-.26-.15.31.31,0,0,1,.11-.41c.15-.09,3.69-2.09,6.42-2.22a.31.31,0,0,1,.32.29h0a.32.32,0,0,1-.29.32c-2.59.12-6.11,2.11-6.14,2.13A.29.29,0,0,1,107.48,16.82Z"/><path class="cls-8" d="M144.12,154.57s-7.71,21.58-10.8,38.88a309.6,309.6,0,0,0-3.94,34.09H109.69s4.79-37,4.62-38.72,3.77-29.63,4.11-33-.68-8.73-2.91-13.36-5.31-10.79-4.62-15.25a56.77,56.77,0,0,1,1.71-7.71s.68-11.64.17-17.64-1.21-17-1.21-17,5-3.77,9.77-4.11a15.76,15.76,0,0,1,8.9,2.41s.69,16.45,2.23,21.41,4.63,13.88,4.63,13.88,5.82,9.42,6.33,16.44-1.88,11-1.37,13.7A30,30,0,0,0,144.12,154.57Z"/><path class="cls-5" d="M129.38,227.84H109.69a.3.3,0,0,1-.3-.31v0c1.65-12.78,4.75-37.31,4.62-38.64-.11-1.06,1.21-10.93,2.77-22.75.66-4.92,1.21-9.17,1.34-10.36.36-3.58-.8-8.88-2.88-13.2L115,142c-2.26-4.69-5.07-10.52-4.4-14.9a59.74,59.74,0,0,1,1.71-7.72c0-.72.66-11.82.17-17.56-.51-5.93-1.21-16.85-1.21-17a.31.31,0,0,1,.12-.26c.2-.15,5.09-3.82,9.92-4.16a16,16,0,0,1,9.1,2.45.3.3,0,0,1,.13.23c0,.16.7,16.46,2.21,21.34s4.41,13.24,4.61,13.83c.43.68,5.87,9.65,6.37,16.55a30.46,30.46,0,0,1-.91,9.51,11.66,11.66,0,0,0-.47,4.16,29.61,29.61,0,0,0,2,5.92.45.45,0,0,1,0,.23c-.08.21-7.74,21.76-10.79,38.84a316,316,0,0,0-3.89,34,.32.32,0,0,1-.32.29ZM110,227.23h19.06A314.73,314.73,0,0,1,133,193.42C136,177,143.17,156.34,143.79,154.6a29.22,29.22,0,0,1-2-5.95,11.75,11.75,0,0,1,.48-4.4,30.37,30.37,0,0,0,.89-9.35c-.5-6.87-6.24-16.21-6.3-16.29v-.06c0-.09-3.1-9-4.63-13.88-1.47-4.74-2.15-19.52-2.23-21.32a15.6,15.6,0,0,0-8.59-2.27c-4.18.29-8.66,3.37-9.47,4,.09,1.39.71,11.26,1.2,16.79.52,6-.16,17.57-.17,17.68a.08.08,0,0,1,0,.07,61.05,61.05,0,0,0-1.7,7.67c-.64,4.19,2.13,9.94,4.35,14.55l.26.52c2.12,4.41,3.3,9.85,2.93,13.52-.12,1.21-.68,5.43-1.34,10.38-1.21,9.09-2.87,21.53-2.77,22.61C114.78,190.45,110.54,223.28,110,227.23Z"/><path class="cls-5" d="M123.86,138.52a.28.28,0,0,1-.13,0,.31.31,0,0,1-.14-.41h0a11.51,11.51,0,0,1,2.69-4,.3.3,0,1,1,.43.43l0,0a11.56,11.56,0,0,0-2.53,3.75A.31.31,0,0,1,123.86,138.52Z"/><path class="cls-5" d="M119.44,151.45h-.07a.31.31,0,0,1-.22-.37,94.87,94.87,0,0,1,3.21-10.15.31.31,0,0,1,.39-.17.3.3,0,0,1,.17.39h0a93.69,93.69,0,0,0-3.18,10.09A.3.3,0,0,1,119.44,151.45Z"/><path class="cls-5" d="M119.62,145.79a.3.3,0,0,1-.3-.3A53.1,53.1,0,0,1,121.73,130a.31.31,0,0,1,.39-.18.3.3,0,0,1,.19.38,52,52,0,0,0-2.39,15.32A.29.29,0,0,1,119.62,145.79Z"/><path class="cls-5" d="M131.61,177.31h-.05c-9.59-1.55-14.19-7.24-14.23-7.31a.31.31,0,0,1,0-.43.3.3,0,0,1,.42.06c0,.05,4.51,5.58,13.88,7.08a.31.31,0,0,1,.25.34h0A.3.3,0,0,1,131.61,177.31Z"/><path class="cls-5" d="M125.79,190.67h0a.3.3,0,0,1-.29-.32h0c.07-1,.18-2.12.32-3.35a.31.31,0,0,1,.61.07c-.15,1.2-.25,2.34-.32,3.33a.3.3,0,0,1-.31.28Z"/><path class="cls-5" d="M126.58,183.76h0a.31.31,0,0,1-.26-.34c1-6.56,2.45-13.27,2.47-13.35a.32.32,0,0,1,.37-.24.31.31,0,0,1,.23.37c0,.06-1.47,6.78-2.45,13.31A.3.3,0,0,1,126.58,183.76Z"/><path class="cls-5" d="M164,85.19s-4.17-3.86-9.66,1.49-5.94,13.82-6.24,18-9.81-1.48-14.14,6.71,1.78,14,4.31,16.94,1.63,6.54-1.49,9.22-4.9,7.42-1.93,11.29,7.88,4,6.54,6.69a2.44,2.44,0,0,1-3.72,1s1.94,4.61,6.69,1.48a8.57,8.57,0,0,0,3-11.46c-1.77-2.84-1.2-6.83.75-7.43s5.35-3.27,4.75-7.28-2.67-11.15-.6-15a29.65,29.65,0,0,0,2.67-9s6.39-2.23,7.88-4A18.54,18.54,0,0,0,165.27,99,11.12,11.12,0,0,0,164,85.19Z"/><path class="cls-5" d="M141.26,159.4a3.77,3.77,0,0,1-1.11-.16,4.88,4.88,0,0,1-2.78-2.59l-.39-.94.84.57a2.6,2.6,0,0,0,1.88.38,2.22,2.22,0,0,0,1.4-1.31c.6-1.2-.21-1.72-2.08-2.81a14,14,0,0,1-4.43-3.56c-3.05-3.95-1.32-8.88,2-11.7s3.74-6.1,1.46-8.79c-.2-.24-.43-.49-.67-.77-2.71-3.07-7.74-8.8-3.68-16.51,2.59-4.92,7-5,10.25-5,2.46,0,3.74-.12,3.85-1.52v-.36c.3-4.38.88-12.54,6.31-17.82,5.64-5.48,10-1.53,10.07-1.49h0a11.49,11.49,0,0,1,1.39,14.17A18.48,18.48,0,0,1,163,104c-1.4,1.68-6.76,3.66-7.84,4a29.21,29.21,0,0,1-2.69,9c-1.62,3-.64,8,.13,12.07.2,1,.38,1.94.5,2.75.64,4.35-3.14,7.05-5,7.61a2.2,2.2,0,0,0-1.28,1.46,6.72,6.72,0,0,0,.7,5.53,8.77,8.77,0,0,1-3.06,11.85A6,6,0,0,1,141.26,159.4Zm-2.86-2.18a3.8,3.8,0,0,0,1.93,1.46,4.63,4.63,0,0,0,3.85-.89,8.29,8.29,0,0,0,2.87-11,7.27,7.27,0,0,1-.76-6,2.81,2.81,0,0,1,1.67-1.81c1.68-.51,5.14-3,4.55-6.95-.12-.8-.3-1.74-.49-2.73-.79-4.14-1.81-9.29-.07-12.47a29.4,29.4,0,0,0,2.64-9v-.18l.18-.07c.06,0,6.33-2.22,7.74-3.92A17.81,17.81,0,0,0,165,99l.05-.08a10.71,10.71,0,0,0-1.29-13.46c-.25-.23-4.08-3.52-9.24,1.49s-5.82,13.12-6.12,17.42v.37c-.14,2-2.13,2-4.43,2.08-3.25.06-7.3.12-9.72,4.72-3.88,7.34.81,12.67,3.62,15.84l.67.77c2.49,2.93,1.89,6.72-1.52,9.66-3.07,2.63-4.71,7.23-1.89,10.85a13.77,13.77,0,0,0,4.26,3.4c1.71,1,3.18,1.86,2.31,3.62a2.81,2.81,0,0,1-1.81,1.62A2.72,2.72,0,0,1,138.4,157.22Z"/><path class="cls-6" d="M164.55,91.81s-.89,5.36-3.76,8.94-9.48,7-9.48,7-1.61,11.46-.9,16.82,7.07,14.44,13.88,14.79,9.69-2.05,12.61-4.78c3.62-3.34,6.44-10.55,6.63-12.88s-1.43-4.65-1.81-8.22,2-5.9-1.81-8.41-9.3-.18-10.91-4.11S167.41,91.27,164.55,91.81Z"/><path class="cls-5" d="M165.61,139.68c-.43,0-.87,0-1.34,0-6.75-.35-13.39-9.36-14.15-15.08-.71-5.35.82-16.43.89-16.89a.28.28,0,0,1,.16-.23c.07,0,6.6-3.41,9.38-6.89s3.69-8.76,3.7-8.81a.3.3,0,0,1,.24-.25c2.24-.41,2.91,2.37,3.62,5.31a29.26,29.26,0,0,0,1.21,4c.85,2.08,2.9,2.27,5.28,2.49a11.75,11.75,0,0,1,5.52,1.49c2.71,1.81,2.41,3.56,2.11,5.6a11.75,11.75,0,0,0-.19,3,19.79,19.79,0,0,0,1,4.36,10.48,10.48,0,0,1,.75,3.92c-.19,2.52-3.16,9.77-6.72,13.08C174.13,137.55,171.36,139.68,165.61,139.68Zm-14-31.75c-.19,1.37-1.53,11.64-.87,16.57.73,5.5,7.11,14.2,13.58,14.54,6.94.36,9.84-2.33,12.39-4.7,3.65-3.41,6.35-10.57,6.52-12.67a9.89,9.89,0,0,0-.73-3.68,21,21,0,0,1-1.06-4.49,12,12,0,0,1,.2-3.17c.31-2,.54-3.42-1.86-5a11.15,11.15,0,0,0-5.23-1.38c-2.47-.23-4.8-.45-5.79-2.86A30.48,30.48,0,0,1,167.53,97c-.64-2.66-1.2-5-2.72-4.88A22.51,22.51,0,0,1,161,101c-2.68,3.32-8.44,6.44-9.44,7Z"/><path class="cls-5" d="M163.87,113.32c-.2,1-.89,1.72-1.55,1.59s-1-1-.84-2.06.9-1.72,1.55-1.59S164.08,112.31,163.87,113.32Z"/><path class="cls-5" d="M176.27,117.35c-.36,1-1.15,1.56-1.81,1.33s-.86-1.21-.51-2.16,1.16-1.57,1.81-1.33S176.62,116.39,176.27,117.35Z"/><path class="cls-5" d="M168.22,123a5.59,5.59,0,0,1-1.57-.2c-2.58-.68-3.27-3.56-3.29-3.68a.29.29,0,0,1,.22-.36.29.29,0,0,1,.36.22h0s.63,2.64,2.86,3.23a5.24,5.24,0,0,0,4.39-.72.29.29,0,0,1,.37-.18h0a.31.31,0,0,1,.18.39C171.59,122.23,170.07,123,168.22,123Z"/><path class="cls-7" d="M160.3,122.8a13.13,13.13,0,0,0,5.7,3.8c4.05,1.48,6.33.27,6.33.27s-3.24,3.65-7.19,2.66S160.3,122.8,160.3,122.8Z"/><path class="cls-5" d="M166.53,130a5.17,5.17,0,0,1-1.46-.18c-4-1-5-6.73-5.07-7a.3.3,0,0,1,.24-.35.33.33,0,0,1,.3.12,13,13,0,0,0,5.57,3.71c3.84,1.4,6,.29,6.08.28a.31.31,0,0,1,.38.09.3.3,0,0,1,0,.38C172.43,127.21,169.9,130,166.53,130Zm-5.67-6.16c.48,1.67,1.71,4.74,4.36,5.4a7.14,7.14,0,0,0,5.95-1.71,10.2,10.2,0,0,1-5.27-.65A14.45,14.45,0,0,1,160.86,123.84Z"/><path class="cls-5" d="M165.8,109.69a.58.58,0,0,1-.36-.12,5.26,5.26,0,0,0-5.74-.49.6.6,0,0,1-.64-1,6.45,6.45,0,0,1,7.09.53.62.62,0,0,1,.14.85.64.64,0,0,1-.49.25Z"/><path class="cls-5" d="M179.17,115a.6.6,0,0,1-.58-.43c-1-3.16-4.79-2.44-5-2.41a.61.61,0,1,1-.24-1.2c1.74-.35,5.3-.12,6.35,3.23a.61.61,0,0,1-.4.76h0Z"/><path class="cls-6" d="M150.88,111.2s-1.93-3.72-4.16-.45S150.14,121,150.14,121Z"/><path class="cls-5" d="M150.14,121.31a.3.3,0,0,1-.24-.11c-.23-.29-5.76-7.2-3.43-10.61a2.66,2.66,0,0,1,2.27-1.48c1.42.09,2.37,1.87,2.41,2a.32.32,0,0,1,0,.16l-.75,9.8a.33.33,0,0,1-.21.27Zm-1.51-11.6c-.56,0-1.11.41-1.67,1.21-1.7,2.5,1.64,7.51,2.94,9.27l.67-8.93c-.17-.31-.92-1.49-1.87-1.56Z"/><path class="cls-8" d="M165.89,153.26s-4.3,23.34-4.16,43.25.6,31.06.6,31.06H198a119.62,119.62,0,0,0,.6-23.78c-1-12.34-3.56-38.64-5.8-42.95s-8-5.79-12.48-7.13a59.36,59.36,0,0,1-8.32-3.27s.15-3.12-1.78-3.72a5.23,5.23,0,0,0-3.13-.15Z"/><path class="cls-5" d="M198,227.87H162.32a.3.3,0,0,1-.3-.29c0-.11-.45-11.38-.6-31.07s4.11-43,4.17-43.3l1.2-6.69a.31.31,0,0,1,.2-.23,5.43,5.43,0,0,1,3.31.14c1.85.58,2,3.08,2,3.82a60,60,0,0,0,8.07,3.17l.82.24c4.32,1.28,9.69,2.88,11.85,7,2.41,4.71,5.07,34.16,5.83,43.07a120.22,120.22,0,0,1-.6,23.84A.32.32,0,0,1,198,227.87Zm-35.38-.6h35.12a120.14,120.14,0,0,0,.55-23.45c-.53-6.33-3.31-38.11-5.76-42.84-2-3.93-7.27-5.49-11.46-6.74l-.82-.24a60,60,0,0,1-8.37-3.28.34.34,0,0,1-.17-.29s.12-2.89-1.57-3.41a5.29,5.29,0,0,0-2.76-.2l-1.16,6.5h0c0,.24-4.3,23.53-4.16,43.19C162.17,214.45,162.54,225.39,162.61,227.27Z"/><path class="cls-5" d="M188,177.19h-.06a.31.31,0,0,1-.25-.35c.61-3.34.95-5.5.95-5.5a.31.31,0,0,1,.35-.25.3.3,0,0,1,.24.35l-.94,5.51A.28.28,0,0,1,188,177.19Z"/><path class="cls-5" d="M175.1,227.57a.28.28,0,0,1-.13,0,.29.29,0,0,1-.14-.39h0a136.8,136.8,0,0,0,5.93-13.49c1-3.06,4.22-21.34,6.09-32a.28.28,0,0,1,.33-.24h0a.3.3,0,0,1,.25.34h0c-2.24,13-5.16,29.12-6.1,32.05a139.78,139.78,0,0,1-6,13.57A.3.3,0,0,1,175.1,227.57Z"/><path class="cls-5" d="M182.09,213.46a.31.31,0,0,1-.23-.5c.19-.23,4.82-5.48,10.86-4.41a.31.31,0,0,1,.25.35.32.32,0,0,1-.36.25c-5.71-1-10.22,4.16-10.25,4.22A.34.34,0,0,1,182.09,213.46Z"/><path class="cls-5" d="M187.61,208.55a.31.31,0,0,1-.35-.26.3.3,0,0,1,.26-.34c.21-.06,5-1.5,7.32-.74a.3.3,0,0,1-.19.57c-2.11-.7-6.91.73-7,.75Z"/><path class="cls-5" d="M168.19,168.28c-1.27,0-2.31-1.31-2.31-2.91a2.37,2.37,0,1,1,2.31,2.91Zm0-5.2c-.94,0-1.7,1-1.7,2.29s.76,2.3,1.7,2.3,1.71-1,1.71-2.3S169.13,163.08,168.19,163.08Z"/><path class="cls-5" d="M167.6,190.12a3.13,3.13,0,1,1,2.89-3.34,1.55,1.55,0,0,1,0,.22,3,3,0,0,1-2.9,3.12Zm0-5.65a2.54,2.54,0,1,0,2.29,2.76,1.85,1.85,0,0,0,0-.23,2.42,2.42,0,0,0-2.3-2.53Z"/><path class="cls-5" d="M166.41,215.83a3.13,3.13,0,1,1,2.89-3.35,1.77,1.77,0,0,1,0,.23A3,3,0,0,1,166.41,215.83Zm0-5.64a2.53,2.53,0,1,0,2.28,2.75,1.64,1.64,0,0,0,0-.23,2.41,2.41,0,0,0-2.3-2.52Z"/><path class="cls-5" d="M183.72,191.16h0a21.27,21.27,0,0,1-2.55-.22.29.29,0,0,1-.26-.34.3.3,0,0,1,.34-.26c.82.11,1.66.19,2.49.22a.3.3,0,0,1,.3.3.29.29,0,0,1-.3.3Z"/><path class="cls-5" d="M177.72,190.34h-.06c-3.56-.74-6.77-1.7-6.81-1.71a.31.31,0,0,1-.2-.38.3.3,0,0,1,.38-.2s3.22,1,6.75,1.7a.3.3,0,0,1-.06.59Z"/><path class="cls-5" d="M165,161.74h-.11a.31.31,0,0,1-.18-.39c1.81-4.9,6.26-9.86,6.31-9.91a.3.3,0,0,1,.42,0,.29.29,0,0,1,0,.43h0c0,.05-4.44,4.92-6.18,9.71A.31.31,0,0,1,165,161.74Z"/></g><path class="cls-3" d="M4.33,233.66c0-.58,12.06-10.19,12.06-10.19s74.67-11.06,80.55-13.38c0,0,27.05-2.91,39.4,2.32s15.57,9.68,15.57,9.68l1.48.22s8.82-9.31,34.11-10.48a148.25,148.25,0,0,1,44.7,4.66l13.51,1.74,43.51,2.92,6.47,11.64,3.31,1.43-139.79-.72h-.84L153,228.55s-1-1-3,0-5.13,5.11-5.13,5.11l-142.3.58Z"/><path class="cls-9" d="M262,233.46l35.49.19-3.28-1.44-6.4-11.64-43.08-2.91-13.38-1.74a145.24,145.24,0,0,0-44.24-4.66c-25,1.16-33.76,10.48-33.76,10.48l-1.47-.22s-3.19-4.44-15.41-9.68-39-2.33-39-2.33c-5.82,2.33-79.75,13.39-79.75,13.39S5.82,232.51,5.82,233.09l-1.75.58,138.25-2,2.62,1.46s4.36-5,5-7,4.28,0,4.28,0l4.06,6.82h.82l1.23-2.46,92.55,2.33-10.48-1.17-79.16-2.33c2.33-2.32,18-2.32,18-2.32C199.94,225.23,262,233.46,262,233.46ZM111.18,219.12c-18.2,1.25-35.51,5.24-44.88,5.95a89.27,89.27,0,0,1-14.27,0s16.07.45,45.76-5.37,41.33,1.49,41.33,1.49C135.63,219.83,124.8,218.18,111.18,219.12Zm9.89-4.08c-14.21-.95-53,5.24-69.27,8.73-7.74,1.66-18.47,1.3-18.47,1.3,8.3.13,53.52-8.79,71.44-11.19,32.44-4.35,42.5,8.73,42.5,8.73C146.52,221.71,134.7,216,121.07,215Zm89,6.11C240.3,227.46,256.7,227,256.7,227a86,86,0,0,1-14.56,0c-9.56-.77-27.22-5.09-45.78-6.45-13.89-1-24.94.77-28.5,2.24C167.86,222.76,179.74,214.84,210,221.15Z"/></g></g></svg>